<svg width="250" height="250" viewBox="0 0 250 250" fill="none" xmlns="http://www.w3.org/2000/svg">
<path d="M0 0C82.5 0 165 0 250 0C250 82.5 250 165 250 250C167.5 250 85 250 0 250C0 167.5 0 85 0 0Z" fill="white"/>
<path d="M128.063 47.8234C129 48.4276 129 48.4276 129.605 49.278C130.508 50.2895 130.922 50.3322 132.253 50.4259C132.639 50.457 133.025 50.4881 133.423 50.5201C134.047 50.5588 134.047 50.5588 134.684 50.5982C135.339 50.6487 135.995 50.6992 136.651 50.7498C137.569 50.8188 138.487 50.8806 139.406 50.9425C141.009 51.0518 142.611 51.1716 144.214 51.2926C145.066 51.3562 145.919 51.4168 146.772 51.474C149.874 51.6967 151.961 51.8684 154.271 54.1151C154.62 54.449 154.97 54.7828 155.319 55.1164C155.49 55.2823 155.662 55.4482 155.838 55.6192C156.543 56.2954 157.271 56.9447 158 57.5943C159.063 58.5479 160.12 59.5071 161.171 60.474C161.514 60.7888 161.858 61.1025 162.203 61.4151C162.976 62.117 163.73 62.8259 164.459 63.5747C166.12 65.2333 167.153 65.6291 169.492 65.675C170.879 65.8167 171.412 66.4111 172.334 67.4276C172.921 68.4021 173.084 69.1066 173.063 70.2401C173.061 70.4872 173.058 70.7342 173.056 70.9888C173 71.7609 173 71.7609 172.782 72.5467C172.638 73.6481 172.865 74.0241 173.442 74.9602C173.62 75.2556 173.799 75.551 173.983 75.8553C174.174 76.1611 174.365 76.4668 174.563 76.7818C174.737 77.0682 174.912 77.3545 175.092 77.6496C175.368 78.1024 175.368 78.1024 175.65 78.5643C175.851 78.9032 176.053 79.2422 176.26 79.5913C176.801 80.4786 177.401 81.2984 178.029 82.1258C181.49 86.9102 181.599 91.5958 181.469 97.2714C181.455 98.2087 181.468 99.1448 181.481 100.082C181.493 101.216 181.479 102.349 181.466 103.482C181.471 103.896 181.476 104.31 181.48 104.737C181.405 107.062 181.055 108.29 179.396 109.968C178.829 110.466 178.253 110.953 177.667 111.428C177.179 111.857 176.693 112.287 176.209 112.719C175.541 113.304 174.886 113.844 174.167 114.365C173.441 115.424 173.652 116.351 173.702 117.603C173.648 118.858 173.16 119.512 172.334 120.428C171.54 121.003 170.987 121.397 170.006 121.49C169.235 121.718 169.235 121.718 168.851 122.65C168.706 123.037 168.562 123.425 168.413 123.823C168.334 124.029 168.256 124.235 168.174 124.447C167.924 125.106 167.681 125.766 167.438 126.428C167.19 127.088 166.94 127.748 166.69 128.408C166.464 129.006 166.242 129.605 166.02 130.205C165.667 131.094 165.667 131.094 165.334 131.428C164.847 131.527 164.356 131.607 163.864 131.68C163.551 131.726 163.238 131.773 162.916 131.821C162.575 131.87 162.234 131.92 161.883 131.971C161.359 132.048 161.359 132.048 160.825 132.126C160.084 132.235 159.342 132.342 158.601 132.45C157.47 132.613 156.34 132.78 155.21 132.948C154.49 133.053 153.77 133.158 153.05 133.262C152.713 133.312 152.376 133.362 152.029 133.414C150.333 133.656 148.713 133.818 147 133.761C147.136 134.121 147.272 134.48 147.413 134.851C147.922 136.195 148.43 137.539 148.939 138.884C149.159 139.464 149.378 140.044 149.598 140.624C149.915 141.461 150.231 142.299 150.548 143.136C150.645 143.392 150.742 143.648 150.842 143.912C151.027 144.401 151.212 144.891 151.396 145.381C151.581 145.867 151.768 146.352 151.959 146.836C152.356 147.857 152.667 148.655 152.667 149.761C144.685 150.511 144.685 150.511 142.64 148.925C141.758 148.043 141.049 147.054 140.378 146.006C139.82 145.151 139.16 144.392 138.5 143.615C138.263 143.32 138.026 143.025 137.781 142.721C136.874 141.606 135.939 140.516 135 139.428C133.821 138.06 132.657 136.685 131.521 135.282C130.321 133.803 129.084 132.362 127.834 130.928C125.706 128.487 123.594 126.031 121.667 123.428C119.641 123.641 117.805 124.197 115.871 124.826C115.201 125.039 114.531 125.252 113.862 125.465C112.812 125.801 111.763 126.138 110.715 126.477C109.698 126.805 108.681 127.128 107.663 127.451C107.349 127.554 107.035 127.657 106.712 127.762C106.419 127.855 106.126 127.947 105.825 128.042C105.568 128.125 105.312 128.208 105.048 128.293C104.224 128.448 103.771 128.423 103 128.094C102.49 127.208 102.072 126.367 101.666 125.434C101.544 125.166 101.423 124.897 101.297 124.62C100.909 123.759 100.527 122.896 100.146 122.032C99.888 121.456 99.6296 120.88 99.3706 120.305C99.0043 119.49 98.6386 118.676 98.2766 117.859C97.7909 116.765 97.297 115.689 96.7529 114.623C96.3335 113.761 96.3335 113.761 96.3335 113.094C96.0443 113.113 96.0443 113.113 95.7493 113.132C93.7162 113.259 91.6842 113.344 89.6481 113.406C88.8919 113.434 88.136 113.472 87.3809 113.522C80.7901 113.942 80.7901 113.942 78.478 112.007C77.2998 110.834 76.3169 109.53 75.3192 108.204C74.64 107.396 73.9335 106.783 73.1047 106.132C70.7694 104.26 69.0172 102.639 68.4943 99.5889C68.2844 97.5096 68.293 95.4529 68.3713 93.3663C68.4169 92.0727 68.4124 90.7863 68.4012 89.4921C68.4358 84.6711 68.919 81.2155 72.2186 77.5883C72.8265 76.9183 73.3606 76.2002 73.8999 75.4745C74.0688 75.2563 74.2377 75.0382 74.4116 74.8134C76.0973 72.6007 77.0506 71.1307 76.7267 68.2479C76.6669 67.4276 76.6669 67.4276 77.2085 66.2401C78.1334 65.2909 78.7374 64.8485 80.0002 64.4276C80.5355 64.4604 81.0703 64.5029 81.6044 64.5526C82.7402 64.5918 83.1959 64.5293 84.1213 63.8456C84.8867 63.0616 85.6092 62.2495 86.3335 61.4276C86.7632 61.03 87.2004 60.6405 87.646 60.2609C88.6476 59.4018 89.6292 58.525 90.6044 57.6359C92.0888 56.2938 93.6228 55.0255 95.1851 53.7753C96.0048 53.1486 96.0048 53.1486 96.4881 52.4107C97.8491 51.3647 99.3342 51.4523 101.009 51.3508C101.376 51.3239 101.742 51.2969 102.119 51.2692C103.294 51.1843 104.47 51.108 105.646 51.0318C106.416 50.977 107.186 50.9216 107.955 50.8658C108.716 50.8118 109.477 50.7582 110.238 50.7049C110.613 50.6787 110.987 50.6525 111.372 50.6255C113.16 50.5063 114.941 50.4134 116.733 50.3864C117.054 50.3794 117.375 50.3724 117.705 50.3652C118.3 50.3542 118.895 50.3512 119.49 50.3578C120.96 50.3463 120.96 50.3463 122.202 49.6485C122.716 49.0475 122.716 49.0475 123.334 48.0943C124.783 47.0311 126.443 47.22 128.063 47.8234Z" fill="#2D363C"/>
<path d="M129.667 54.4272C133.443 54.3287 137.141 54.5895 140.897 54.9603C141.841 55.053 142.785 55.1407 143.729 55.228C144.337 55.2863 144.944 55.3449 145.552 55.4038C145.83 55.4295 146.109 55.4552 146.396 55.4817C148.623 55.7065 150.69 55.9191 152.35 57.5535C152.697 57.8884 152.697 57.8884 153.051 58.23C153.288 58.467 153.526 58.7039 153.771 58.948C154.272 59.4344 154.774 59.9205 155.276 60.4064C155.515 60.6406 155.755 60.8747 156.002 61.116C158.144 63.193 160.415 65.1377 162.667 67.0939C161.436 67.5151 160.423 67.3673 159.147 67.1915C158.51 67.1042 158.51 67.1042 157.861 67.0151C157.641 66.9835 157.421 66.9519 157.194 66.9193C156.525 66.8236 155.854 66.7329 155.184 66.6427C151.367 66.1079 151.367 66.1079 150 65.4272C149.66 64.8754 149.327 64.3197 149 63.7605C147.846 62.8047 146.831 62.5811 145.331 62.6434C143.864 62.9022 142.952 63.7418 142.042 64.8647C141.397 66.4035 141.485 67.6074 142.062 69.1564C142.604 70.1326 142.604 70.1326 143.51 70.6616C144.587 71.6635 144.665 72.5485 144.771 73.948C144.793 74.1931 144.816 74.4381 144.84 74.6906C145.002 76.6267 145.086 78.5682 145.125 80.5105C145.134 80.7763 145.142 81.0421 145.151 81.316C145.156 83.075 144.834 83.7363 143.667 85.0939C143.526 85.5806 143.398 86.0712 143.28 86.5639C142.669 88.5544 141.26 89.2565 139.521 90.2397C139.091 90.4972 139.091 90.4972 138.653 90.7599C137.455 91.4724 136.251 92.1476 135 92.7605C133.101 89.0836 131.379 85.3291 129.652 81.5691C128.453 78.9577 127.23 76.3577 126 73.7605C123.769 78.0452 121.822 82.4454 119.876 86.865C119.324 88.1161 118.766 89.3644 118.207 90.6121C118.114 90.82 118.021 91.0279 117.925 91.242C117.461 92.2759 116.995 93.309 116.527 94.3409C115.733 96.0966 114.952 97.8495 114.251 99.6447C112.56 103.912 112.56 103.912 110.562 104.865C110.283 104.964 110.003 105.063 109.715 105.165C108.918 105.394 108.918 105.394 108.292 106.219C107.815 107.649 107.773 108.88 108.354 110.281C108.869 111.62 108.466 112.752 107.959 114.055C107.807 114.38 107.655 114.705 107.499 115.039C107.334 115.394 107.17 115.748 107 116.113C106.742 116.661 106.742 116.661 106.479 117.219C106.306 117.591 106.132 117.964 105.954 118.348C105.527 119.264 105.098 120.179 104.667 121.094C103.338 119.433 102.508 117.519 101.583 115.615C101.394 115.237 101.205 114.86 101.01 114.471C100.833 114.106 100.656 113.742 100.474 113.366C100.311 113.034 100.148 112.702 99.98 112.36C99.4968 110.922 99.8351 110.131 100.438 108.775C100.623 108.414 100.807 108.052 100.997 107.68C101.148 107.382 101.148 107.382 101.302 107.077C101.518 106.651 101.735 106.225 101.952 105.799C102.528 104.674 103.096 103.545 103.665 102.417C103.779 102.191 103.894 101.964 104.012 101.731C105.029 99.7128 106.011 97.6781 106.979 95.6355C107.949 93.5927 108.923 91.5527 109.937 89.5314C110.04 89.3274 110.142 89.1235 110.248 88.9134C110.774 87.8668 111.302 86.8212 111.832 85.776C114.575 80.3511 117.207 74.889 119.746 69.3647C120.853 66.9631 121.98 64.571 123.104 62.1772C123.328 61.6999 123.552 61.2226 123.776 60.7452C124.295 59.6391 124.814 58.5332 125.333 57.4272C125.663 57.4272 125.993 57.4272 126.333 57.4272C128.205 61.0692 129.943 64.7677 131.66 68.4852C133.405 72.2606 135.194 76.0139 137 79.7605C137.302 79.6574 137.605 79.5543 137.917 79.448C138.722 79.1848 139.509 78.9507 140.333 78.7605C138.319 74.1105 136.161 69.5298 133.997 64.9487C133.777 64.4838 133.558 64.0188 133.339 63.5537C132.757 62.3189 132.169 61.0875 131.573 59.8597C131.449 59.6027 131.325 59.3458 131.198 59.0811C130.96 58.5881 130.721 58.0962 130.479 57.6054C129.92 56.4393 129.667 55.7449 129.667 54.4272Z" fill="#F9FAF9"/>
<path d="M149.333 69.7607C152.616 69.9538 155.847 70.3014 159.104 70.7607C159.546 70.8207 159.987 70.8806 160.429 70.9404C163.624 71.3848 163.624 71.3848 164 71.7607C164.114 72.7562 164.083 73.2868 163.569 74.1579C163.361 74.4187 163.152 74.6795 162.938 74.9482C161.548 76.7828 160.237 78.6594 158.958 80.5732C158.757 80.8655 158.555 81.1577 158.347 81.4587C158.163 81.7367 157.979 82.0147 157.789 82.3011C157.621 82.5501 157.453 82.7991 157.28 83.0556C156.915 83.7539 156.915 83.7539 157.233 84.4511C157.632 85.0427 158.032 85.6161 158.475 86.1748C158.631 86.372 158.787 86.5693 158.947 86.7725C159.109 86.9748 159.271 87.1772 159.438 87.3857C159.595 87.5855 159.753 87.7854 159.916 87.9912C160.073 88.1893 160.23 88.3874 160.392 88.5915C160.547 88.7877 160.703 88.984 160.863 89.1862C161.173 89.5645 161.492 89.935 161.822 90.2962C162.516 91.0627 162.972 91.576 163.128 92.6149C163.099 92.883 163.071 93.1512 163.042 93.4274C162.969 94.9392 163.109 95.8163 164 97.0941C164.333 97.2818 164.667 97.4696 165.01 97.6631C165.85 98.3486 165.997 98.7453 166.225 99.8259C166.348 101.181 166.415 102.526 166.458 103.886C166.48 104.356 166.503 104.827 166.527 105.297C166.626 107.341 166.676 109.381 166.667 111.427C163.802 109.072 161.182 106.438 158.78 103.614C158.426 103.202 158.05 102.811 157.667 102.427C157.6 101.784 157.562 101.137 157.542 100.49C157.453 99.1872 157.392 98.5294 156.729 97.3857C155.337 96.1922 154.22 95.9457 152.418 95.9873C151.244 96.1541 150.545 96.6563 149.667 97.4274C149.096 98.2551 148.994 98.8078 148.872 99.818C148.325 101.746 146.395 102.582 144.792 103.573C144.461 103.785 144.13 103.997 143.789 104.216C142.974 104.737 142.156 105.251 141.333 105.761C140.116 104.237 139.404 102.528 138.604 100.761C138.45 100.428 138.295 100.096 138.136 99.7529C137.917 99.2721 137.917 99.2721 137.694 98.7816C137.561 98.4898 137.427 98.1981 137.29 97.8975C137 97.0941 137 97.0941 137 95.7607C137.683 95.1757 137.683 95.1757 138.63 94.598C138.97 94.3902 139.31 94.1825 139.66 93.9684C140.2 93.6491 140.2 93.6491 140.75 93.3232C141.104 93.1039 141.459 92.8845 141.824 92.6585C144.47 91.0663 144.47 91.0663 145.396 91.1969C145.595 91.273 145.795 91.3491 146 91.4274C147.618 91.5879 148.904 91.6776 150.333 90.8441C151.569 89.4542 151.816 88.3366 151.773 86.512C151.607 85.3384 151.104 84.6389 150.333 83.7607C149.989 83.626 149.989 83.626 149.637 83.4885C149 83.0941 149 83.0941 148.787 82.281C148.756 81.7766 148.756 81.7766 148.724 81.262C148.698 80.8897 148.672 80.5174 148.646 80.1338C148.625 79.7426 148.605 79.3513 148.583 78.9482C148.558 78.5686 148.532 78.189 148.505 77.7979C148.355 75.45 148.301 73.1129 148.333 70.7607C148.553 70.7607 148.773 70.7607 149 70.7607C149.11 70.4307 149.22 70.1007 149.333 69.7607Z" fill="#F9FAFA"/>
<path d="M89.3335 162.094C91.3341 162.067 93.3347 162.039 95.396 162.011C96.0178 161.999 96.6397 161.986 97.2804 161.974C101.842 161.922 106.132 162.456 109.633 165.676C111.865 168.016 112.732 170.351 112.833 173.573C112.712 177.232 111.722 179.734 109.163 182.373C105.194 185.825 100.233 185.518 95.2918 185.469C92.3425 185.448 92.3425 185.448 89.3335 185.427C89.3335 177.727 89.3335 170.027 89.3335 162.094Z" fill="#2E373C"/>
<path d="M134.542 163.27C137.384 165.032 139.323 167.53 140.333 170.761C140.749 174.402 140.599 177.857 138.423 180.901C135.874 184.016 132.57 185.47 128.599 185.868C125.226 185.988 122.362 185.163 119.667 183.094C119.337 182.874 119.007 182.654 118.667 182.428C116.948 180.981 115.706 178.295 115.333 176.094C115.044 172.057 115.399 169.142 118.083 165.99C122.264 161.617 129.069 160.479 134.542 163.27Z" fill="#2D363C"/>
<path d="M139.666 111.761C139.908 112.237 140.143 112.717 140.375 113.198C140.572 113.598 140.572 113.598 140.773 114.007C140.848 114.256 140.923 114.504 141 114.761C140.78 115.091 140.56 115.421 140.333 115.761C140.071 117.581 140.235 118.918 141.333 120.427C141.333 120.647 141.333 120.867 141.333 121.094C142.858 121.881 144.321 121.959 146 121.761C147.017 121.318 147.509 121.02 148.085 120.073C148.666 119.427 148.666 119.427 149.57 119.225C149.936 119.21 150.302 119.194 150.679 119.179C151.097 119.16 151.514 119.142 151.944 119.123C154.449 119.062 156.953 119.06 159.458 119.073C159.999 119.075 160.54 119.076 161.081 119.078C162.387 119.081 163.693 119.087 165 119.094C165.656 121.163 164.836 122.664 164.021 124.552C163.892 124.861 163.763 125.17 163.631 125.489C163.314 126.248 162.992 127.005 162.666 127.761C160.371 128.095 158.075 128.427 155.78 128.758C154.999 128.87 154.218 128.984 153.437 129.097C152.315 129.26 151.192 129.422 150.069 129.584C149.72 129.635 149.371 129.686 149.012 129.738C148.685 129.785 148.358 129.832 148.022 129.88C147.735 129.921 147.449 129.963 147.154 130.005C144.884 130.251 144.884 130.251 143.612 129.336C143.223 128.996 142.839 128.651 142.458 128.302C142.255 128.123 142.053 127.943 141.844 127.758C141.225 127.208 140.612 126.652 140 126.094C139.814 125.925 139.628 125.757 139.437 125.583C138.633 124.853 137.832 124.12 137.036 123.382C136.38 122.748 136.38 122.748 135.666 122.427C135.666 122.207 135.666 121.987 135.666 121.761C135.446 121.761 135.226 121.761 135 121.761C134.886 122.029 134.886 122.029 134.771 122.302C134.189 123.356 133.453 124.183 132.666 125.094C132.841 125.162 133.016 125.231 133.196 125.301C134.352 125.962 135.232 126.862 136.187 127.782C136.569 128.148 136.951 128.513 137.334 128.877C137.54 129.073 137.745 129.269 137.956 129.471C138.676 130.124 138.676 130.124 139.563 130.731C142.364 132.763 143.39 134.97 144.5 138.115C144.666 138.561 144.834 139.006 145.002 139.451C145.458 140.662 145.896 141.877 146.333 143.094C146.664 143.984 146.998 144.872 147.333 145.761C146.63 145.903 146.63 145.903 145.666 145.761C144.864 145.097 144.236 144.298 143.583 143.49C143.392 143.261 143.2 143.032 143.003 142.796C142.441 142.122 141.886 141.442 141.333 140.761C141.07 140.44 140.807 140.119 140.536 139.788C140.064 139.211 139.594 138.632 139.125 138.052C138.158 136.882 137.164 135.738 136.166 134.594C134.677 132.886 133.224 131.155 131.798 129.394C130.615 127.962 129.394 126.563 128.172 125.165C127.825 124.768 127.479 124.369 127.136 123.969C126.714 123.483 126.283 123.005 125.85 122.529C125.333 121.761 125.333 121.761 125.402 121.093C125.864 119.929 127.042 119.469 128.083 118.865C128.573 118.571 129.062 118.276 129.551 117.979C129.795 117.832 130.04 117.684 130.293 117.532C131.313 116.901 132.289 116.221 133.271 115.532C138.652 111.761 138.652 111.761 139.666 111.761Z" fill="#F9FAFA"/>
<path d="M144.333 162.428C146.472 162.407 148.61 162.386 150.813 162.365C151.481 162.356 152.15 162.347 152.839 162.338C153.379 162.335 153.918 162.332 154.457 162.33C154.866 162.322 154.866 162.322 155.283 162.314C158.25 162.313 160.627 163.066 162.779 165.141C164.591 167.166 164.512 169.264 164.447 171.894C164.262 173.852 163.796 175.057 162.318 176.364C161.672 176.86 161.019 177.322 160.333 177.761C161.384 179.673 162.583 181.406 163.88 183.157C165 184.692 165 184.692 165 185.428C163.009 185.81 160.941 186.178 159 185.428C157.813 184.265 157.075 182.821 156.265 181.384C155.384 179.821 155.384 179.821 153.997 178.762C152.459 178.409 151.29 178.594 149.667 178.761C149.667 180.961 149.667 183.161 149.667 185.428C147.907 185.428 146.147 185.428 144.333 185.428C144.333 177.838 144.333 170.248 144.333 162.428Z" fill="#2B353A"/>
<path d="M119.313 54.4066C119.576 54.4081 119.84 54.4096 120.111 54.4112C120.741 54.415 121.371 54.421 122 54.4274C121.827 56.0664 121.488 57.3258 120.754 58.7985C120.565 59.1824 120.376 59.5663 120.182 59.9618C120.081 60.163 119.98 60.3642 119.876 60.5715C119.336 61.6518 118.805 62.7373 118.274 63.822C118.165 64.0423 118.057 64.2626 117.945 64.4896C116.934 66.5495 115.973 68.6312 115.021 70.7191C113.585 73.8512 112.122 76.9696 110.631 80.0753C110.406 80.544 110.182 81.013 109.958 81.4824C109.647 82.1356 109.333 82.7876 109.018 83.4392C108.748 84.0032 108.748 84.0032 108.471 84.5786C108 85.4274 108 85.4274 107.333 85.7608C107.292 83.7975 107.262 81.8345 107.242 79.8709C107.234 79.2032 107.222 78.5355 107.208 77.868C107.188 76.9072 107.178 75.9469 107.171 74.986C107.162 74.6884 107.154 74.3908 107.145 74.0841C107.144 72.5721 107.161 71.9718 108.15 70.7636C108.43 70.5427 108.711 70.3217 109 70.0941C109.867 68.8968 109.892 67.5199 109.667 66.0941C108.965 64.7411 108.41 63.9898 107 63.4274C105.637 63.2138 104.258 63.1089 103.017 63.7777C102.302 64.3647 101.749 64.9296 101.333 65.7608C100.728 65.8977 100.728 65.8977 99.9312 65.9717C99.6352 65.9997 99.3392 66.0277 99.0342 66.0565C98.7136 66.0827 98.393 66.1088 98.0627 66.1358C97.7369 66.1641 97.4111 66.1924 97.0755 66.2216C93.8261 66.4814 90.5906 66.491 87.3335 66.4274C89.3893 63.9678 89.3893 63.9678 90.5835 62.9691C91.6109 62.0941 92.6234 61.2068 93.6252 60.3024C94.1946 59.7886 94.7641 59.2747 95.3335 58.7608C95.5434 58.5162 95.7534 58.2716 95.9696 58.0196C98.5628 55.2381 101.143 55.2321 104.729 55.0941C105.266 55.0637 105.803 55.032 106.339 54.9991C107.392 54.9363 108.445 54.8814 109.498 54.8336C110.896 54.7691 112.289 54.675 113.685 54.5746C115.565 54.4457 117.429 54.3851 119.313 54.4066Z" fill="#F8F8F8"/>
<path d="M99.3958 69.6149C99.7168 69.5947 100.038 69.5745 100.368 69.5537C101.474 69.791 102.122 70.1912 102.901 71.0103C103.888 72.7245 103.648 74.9066 103.646 76.8376C103.651 77.3427 103.656 77.8478 103.661 78.3529C103.67 79.413 103.671 80.4727 103.667 81.5328C103.664 82.6081 103.673 83.682 103.695 84.7571C103.915 95.9267 103.915 95.9267 100.392 100.859C99.8191 101.69 99.3911 102.58 98.9583 103.49C98.8337 103.742 98.7091 103.994 98.5807 104.254C98.4991 104.421 98.4174 104.589 98.3333 104.761C97.5145 103.533 97.2682 102.307 96.9453 100.89C96.8797 100.607 96.814 100.325 96.7464 100.034C96.6081 99.4365 96.4709 98.8388 96.3346 98.241C96.1264 97.3295 95.9137 96.4191 95.7005 95.5088C95.5666 94.9275 95.4329 94.3461 95.2995 93.7646C95.2359 93.4937 95.1724 93.2229 95.107 92.9437C94.7878 91.5279 94.5483 90.2222 94.6667 88.7607C95.1458 88.0316 95.1458 88.0316 95.6667 87.4274C96.0688 86.221 96.1076 85.3633 96 84.0941C95.2371 82.6249 94.5001 81.7918 93 81.0941C92.627 81.0152 92.2541 80.9363 91.8698 80.8551C90.393 80.3301 90.0268 79.8059 89.1875 78.5016C89.0642 78.3126 88.941 78.1235 88.814 77.9287C88.5566 77.531 88.3024 77.1311 88.0513 76.7292C87.6656 76.1131 87.2694 75.5049 86.8711 74.8968C85.4831 72.7355 85.4831 72.7355 85 71.7607C85.11 71.4307 85.22 71.1007 85.3333 70.7607C86.1849 70.3349 86.8299 70.3631 87.7826 70.3337C88.1428 70.3212 88.5031 70.3087 88.8743 70.2959C89.4419 70.2785 89.4419 70.2785 90.0208 70.2607C93.164 70.162 96.2629 69.7544 99.3958 69.6149Z" fill="#F9F9F9"/>
<path d="M176 162.427C177.98 162.427 179.96 162.427 182 162.427C184.72 168.294 184.72 168.294 185.787 170.598C186.077 171.225 186.367 171.851 186.658 172.478C186.801 172.789 186.945 173.1 187.094 173.42C187.842 175.034 188.591 176.649 189.343 178.261C189.632 178.881 189.921 179.502 190.209 180.122C190.549 180.853 190.89 181.583 191.232 182.313C191.38 182.632 191.528 182.951 191.681 183.28C191.808 183.553 191.936 183.825 192.067 184.106C192.333 184.761 192.333 184.761 192.333 185.427C190.353 185.427 188.373 185.427 186.333 185.427C184.667 181.552 184.667 181.552 184.667 180.427C180.927 180.427 177.187 180.427 173.333 180.427C173.003 181.527 172.673 182.627 172.333 183.761C172.113 184.311 171.893 184.861 171.667 185.427C169.797 185.427 167.927 185.427 166 185.427C166.298 183.936 166.744 182.743 167.38 181.386C167.487 181.155 167.593 180.924 167.702 180.687C167.931 180.19 168.161 179.695 168.391 179.199C168.998 177.893 169.6 176.584 170.203 175.275C170.387 174.877 170.387 174.877 170.574 174.472C171.79 171.833 172.981 169.184 174.167 166.531C174.354 166.112 174.542 165.692 174.729 165.273C175.153 164.325 175.577 163.376 176 162.427Z" fill="#2B343A"/>
<path d="M132.667 98.4272C132.887 98.4272 133.107 98.4272 133.333 98.4272C133.97 99.6813 134.599 100.939 135.222 102.199C135.434 102.628 135.649 103.055 135.866 103.481C136.177 104.095 136.481 104.711 136.784 105.328C136.969 105.698 137.154 106.068 137.345 106.45C137.667 107.427 137.667 107.427 137.438 108.188C136.801 109.022 136.063 109.443 135.167 109.99C134.749 110.249 134.331 110.509 133.914 110.77C133.672 110.92 133.429 111.071 133.18 111.227C131.396 112.352 129.638 113.519 127.875 114.677C126.787 115.392 125.698 116.105 124.605 116.813C124.058 117.171 123.514 117.536 122.98 117.915C121.097 119.214 119.014 119.818 116.834 120.465C116.189 120.656 115.546 120.853 114.903 121.05C112.727 121.71 110.562 122.307 108.333 122.761C108.965 120.756 109.731 118.81 110.521 116.865C110.652 116.516 110.783 116.168 110.917 115.809C111.95 113.307 111.95 113.307 113.087 112.676C113.895 112.429 113.895 112.429 114.66 112.29C115.522 112.039 115.722 111.736 116.167 110.969C116.696 109.848 116.696 109.848 116.759 108.926C117.099 107.754 117.657 107.521 118.694 106.905C119.05 106.69 119.407 106.475 119.774 106.253C120.162 106.027 120.55 105.8 120.938 105.573C121.331 105.338 121.723 105.103 122.115 104.867C123.106 104.273 124.101 103.685 125.096 103.098C126.282 102.397 127.463 101.685 128.644 100.975C129.219 100.629 129.796 100.285 130.373 99.9415C130.756 99.7134 130.756 99.7134 131.147 99.4806C131.37 99.3487 131.592 99.2169 131.821 99.081C132.329 98.7901 132.329 98.7901 132.667 98.4272Z" fill="#FBFBFB"/>
<path d="M167.333 74.7607C168.348 74.8626 168.851 74.9206 169.529 75.7099C169.753 76.1108 169.753 76.1108 169.982 76.5199C170.155 76.8226 170.329 77.1253 170.508 77.4372C170.684 77.7571 170.86 78.077 171.042 78.4066C171.389 79.0211 171.737 79.6353 172.086 80.249C172.273 80.591 172.461 80.933 172.654 81.2853C173.165 82.1438 173.677 82.9061 174.273 83.701C177.177 87.7162 177.644 91.3451 177.606 96.2409C177.604 97.429 177.654 98.6078 177.706 99.7946C177.774 103.628 177.528 106.304 174.826 109.186C171.424 112.427 171.424 112.427 170.667 112.427C170.211 108.965 169.891 105.497 169.687 102.011C169.66 101.654 169.633 101.297 169.605 100.929C169.463 98.1001 169.463 98.1001 170.478 96.9118C170.76 96.6419 171.042 96.3721 171.333 96.0941C171.735 94.8876 171.774 94.03 171.667 92.7607C170.85 91.1272 170.039 90.3961 168.333 89.7607C167.962 89.7341 167.592 89.7075 167.21 89.68C165.689 89.3624 165.24 88.8319 164.25 87.6566C163.835 87.1738 163.835 87.1738 163.411 86.6813C163.166 86.3775 162.92 86.0737 162.667 85.7607C162.462 85.536 162.258 85.3113 162.047 85.0798C161.667 84.4274 161.667 84.4274 161.735 83.6729C162.055 82.5699 162.554 81.7982 163.199 80.848C163.439 80.4924 163.678 80.1368 163.925 79.7705C164.179 79.3992 164.433 79.0278 164.687 78.6566C164.943 78.2789 165.199 77.9011 165.454 77.5231C166.078 76.6007 166.704 75.68 167.333 74.7607Z" fill="#F7F7F7"/>
<path d="M57.6665 162.094C63.4965 162.094 69.3265 162.094 75.3332 162.094C75.3332 163.634 75.3332 165.174 75.3332 166.761C71.3732 166.761 67.4132 166.761 63.3332 166.761C63.3332 168.631 63.3332 170.501 63.3332 172.428C66.8532 172.428 70.3732 172.428 73.9998 172.428C73.9998 173.968 73.9998 175.508 73.9998 177.094C70.4798 177.094 66.9598 177.094 63.3332 177.094C63.3332 179.844 63.3332 182.594 63.3332 185.428C61.4632 185.428 59.5932 185.428 57.6665 185.428C57.6665 177.728 57.6665 170.028 57.6665 162.094Z" fill="#323A3F"/>
<path d="M126.667 192.427C128.255 192.407 129.843 192.386 131.479 192.365C131.974 192.356 132.469 192.347 132.978 192.337C135.745 192.32 138.312 192.305 140.521 194.136C141.191 195.477 141.226 196.622 141 198.094C140.542 199.115 140.542 199.115 140 199.761C139.78 199.761 139.56 199.761 139.333 199.761C139.594 200.022 139.856 200.283 140.125 200.552C141.779 202.207 141.779 202.207 141.833 204.032C141.807 205.881 141.807 205.881 141.265 206.705C140.75 207.136 140.75 207.136 139.667 207.761C139.479 207.882 139.292 208.004 139.1 208.129C137.966 208.57 136.849 208.509 135.651 208.492C135.423 208.492 135.195 208.491 134.96 208.49C134.112 208.487 133.264 208.478 132.417 208.469C129.57 208.448 129.57 208.448 126.667 208.427C126.667 203.147 126.667 197.867 126.667 192.427Z" fill="#2F383C"/>
<path d="M81.9998 73.6665C82.6394 74.3185 82.6394 74.3185 83.1808 75.2238C83.4802 75.7111 83.4802 75.7111 83.7856 76.2082C83.987 76.5519 84.1883 76.8957 84.3957 77.2499C84.8029 77.9219 85.2105 78.5938 85.6183 79.2655C85.7959 79.5657 85.9734 79.866 86.1563 80.1753C86.6444 81.0012 86.6444 81.0012 87.2288 81.7021C88.0965 82.9532 87.6541 84.664 87.5715 86.1236C87.6824 87.5349 87.999 88.0244 88.9998 88.9999C89.2817 89.1305 89.5636 89.2611 89.854 89.3957C91.8542 90.8831 92.042 94.871 92.5415 97.2082C92.6137 97.5365 92.6859 97.8648 92.7603 98.203C93.153 100.021 93.4688 101.817 93.6665 103.667C92.1732 102.448 90.8957 101.202 89.6496 99.7342C88.9096 98.8979 88.1282 98.1174 87.3332 97.3332C86.3561 96.3679 85.4118 95.3991 84.5207 94.354C83.5659 93.2368 82.5454 92.198 81.4998 91.1665C80.2637 89.947 79.0934 88.6965 77.9673 87.3749C76.6032 85.8512 75.1239 84.4336 73.6665 82.9999C74.0963 82.1032 74.5662 81.282 75.13 80.4634C75.2831 80.2404 75.4363 80.0174 75.594 79.7876C76.2491 78.8443 76.9059 77.9021 77.5648 76.9614C77.9235 76.4435 78.2711 75.9179 78.6157 75.3905C78.7769 75.1516 78.938 74.9127 79.104 74.6665C79.2333 74.4672 79.3627 74.2678 79.4959 74.0624C80.3195 73.4154 80.9888 73.5481 81.9998 73.6665Z" fill="#F8F8F8"/>
<path d="M73.3334 88.3335C76.0181 90.5936 78.4809 93.0224 80.7631 95.6903C81.3727 96.3779 82.012 97.0221 82.6667 97.6668C83.5128 98.5 84.3138 99.3461 85.0834 100.25C86.1119 101.449 87.2108 102.558 88.3334 103.667C92.2898 107.58 92.2898 107.58 93.0001 109C82.3353 109.751 82.3353 109.751 80.1758 108.188C79.3022 107.318 78.6984 106.306 78.0819 105.245C77.6124 104.591 77.1577 104.265 76.4805 103.836C75.0256 102.863 73.9845 102 73.3334 100.333C72.657 96.4308 73.0718 92.2628 73.3334 88.3335Z" fill="#F8F9F8"/>
<path d="M130.831 166.859C132.731 167.673 133.719 169.22 134.667 171C135.361 173.085 135.239 175.073 134.354 177.083C133.359 178.832 132.249 179.983 130.333 180.667C128.185 180.957 126.184 181.142 124.25 180.061C123.486 179.454 122.85 178.893 122.229 178.146C122.065 177.953 121.902 177.76 121.733 177.561C120.875 176.357 120.935 175.159 120.917 173.729C120.904 173.128 120.904 173.128 120.891 172.514C121.041 170.886 121.534 169.826 122.658 168.639C122.887 168.449 123.117 168.259 123.354 168.063C123.7 167.771 123.7 167.771 124.053 167.473C125.862 166.079 128.695 166.364 130.831 166.859Z" fill="#FAFAFA"/>
<path d="M95 166.667C101.667 166.667 101.667 166.667 104.667 168C106.421 169.792 107.099 171.085 107.146 173.583C107.107 176.27 106.404 177.623 104.521 179.458C101.431 181.418 98.9234 180.667 95 180.667C95 176.047 95 171.427 95 166.667Z" fill="#FBFBFB"/>
<path d="M153.876 104.175C155.918 105.069 157.094 106.607 158.436 108.313C159.523 109.636 160.731 110.849 161.917 112.083C162.381 112.57 162.845 113.058 163.307 113.547C163.505 113.755 163.703 113.963 163.907 114.177C164.334 114.667 164.334 114.667 164.334 115C161.137 115.264 157.95 115.432 154.743 115.468C154.258 115.476 153.772 115.487 153.286 115.503C148.711 115.645 148.711 115.645 147.244 114.354C147.09 114.175 146.936 113.997 146.778 113.813C146.248 113.241 145.817 113.095 145.084 112.854C144 112.333 144 112.333 143.334 111.188C142.914 109.694 142.914 109.694 143.334 108.667C146.071 106.006 149.972 103.477 153.876 104.175Z" fill="#F9FAFA"/>
<path d="M112.667 192.333C113.987 192.333 115.307 192.333 116.667 192.333C117.552 194.183 118.435 196.033 119.317 197.884C119.617 198.512 119.918 199.141 120.219 199.769C120.652 200.675 121.085 201.583 121.517 202.49C121.717 202.907 121.717 202.907 121.921 203.332C122.701 204.975 123.385 206.622 124 208.333C122.68 208.333 121.36 208.333 120 208.333C118.667 205.75 118.667 205.75 118.667 205C116.137 205.11 113.607 205.22 111 205.333C110.56 206.323 110.12 207.313 109.667 208.333C108.347 208.333 107.027 208.333 105.667 208.333C106.408 205.947 107.359 203.721 108.417 201.458C108.578 201.109 108.74 200.76 108.906 200.4C109.38 199.377 109.857 198.355 110.333 197.333C110.586 196.789 110.839 196.245 111.092 195.701C111.615 194.577 112.14 193.455 112.667 192.333Z" fill="#2D353A"/>
<path d="M78.6665 162C80.5365 162 82.4065 162 84.3332 162C84.3332 169.7 84.3332 177.4 84.3332 185.333C82.4632 185.333 80.5932 185.333 78.6665 185.333C78.6665 177.633 78.6665 169.933 78.6665 162Z" fill="#293238"/>
<path d="M157.667 193.333C157.481 194.448 157.216 195.344 156.667 196.333C156.13 196.168 156.13 196.168 155.583 196C153.737 195.533 151.082 195.126 149.333 196C149.333 196.55 149.333 197.1 149.333 197.667C149.746 197.804 150.158 197.942 150.583 198.083C150.855 198.175 151.126 198.266 151.406 198.361C152.057 198.575 152.71 198.782 153.364 198.983C156.754 200.044 156.754 200.044 158 201.333C158.575 202.484 158.454 203.74 158.333 205C157.596 206.745 156.381 207.708 154.646 208.417C151.191 209.25 147.774 208.624 144.667 207C144.9 205.951 145.253 204.991 145.667 204C146.615 204.22 147.504 204.515 148.417 204.854C150.157 205.439 151.678 205.612 153.479 205.104C154.205 204.494 154.182 203.911 154.333 203C153.854 202.854 153.375 202.708 152.896 202.562C152.442 202.425 152.442 202.425 151.979 202.284C151.012 202.003 150.04 201.763 149.062 201.521C147.381 201.065 146.271 200.501 145.229 199.062C144.793 197.674 144.801 196.464 145.375 195.125C148.313 191.404 153.571 191.546 157.667 193.333Z" fill="#2E373B"/>
<path d="M125.667 82.6665C126.722 83.5521 127.225 84.6819 127.797 85.9048C127.9 86.1222 128.003 86.3396 128.109 86.5635C128.325 87.0222 128.54 87.4814 128.754 87.9412C129.082 88.6441 129.417 89.3438 129.752 90.0435C129.962 90.4901 130.171 90.9369 130.38 91.384C130.481 91.5927 130.581 91.8014 130.685 92.0164C131.068 92.8519 131.343 93.5002 131.289 94.4278C130.748 95.4987 129.619 96.016 128.625 96.6248C128.379 96.7793 128.134 96.9337 127.881 97.0928C127.034 97.6222 126.184 98.1446 125.333 98.6665C125.002 98.8713 124.671 99.076 124.33 99.2869C123.291 99.9295 122.25 100.57 121.208 101.208C120.706 101.516 120.706 101.516 120.194 101.83C119.88 102.021 119.566 102.212 119.242 102.409C118.822 102.664 118.822 102.664 118.394 102.925C117.667 103.333 117.667 103.333 116.667 103.667C117.451 101.05 118.564 98.6105 119.708 96.1374C120.272 94.9182 120.831 93.6967 121.389 92.4751C121.499 92.2343 121.609 91.9935 121.723 91.7454C123.093 88.743 124.389 85.7094 125.667 82.6665Z" fill="#F7F8F8"/>
<path d="M92 192.333C93.21 192.333 94.42 192.333 95.6667 192.333C95.6667 196.623 95.6667 200.913 95.6667 205.333C98.3067 205.333 100.947 205.333 103.667 205.333C103.667 206.323 103.667 207.313 103.667 208.333C99.8167 208.333 95.9667 208.333 92 208.333C92 203.053 92 197.773 92 192.333Z" fill="#2A3337"/>
<path d="M149.667 166.667C150.67 166.646 151.674 166.625 152.708 166.604C153.021 166.595 153.333 166.586 153.655 166.577C155.657 166.557 157.064 166.856 158.625 168.208C159.218 169.46 159.259 170.645 159 172C158.053 173.271 157.166 173.88 155.667 174.333C154.63 174.411 153.601 174.396 152.562 174.375C151.607 174.361 150.651 174.348 149.667 174.333C149.667 171.803 149.667 169.273 149.667 166.667Z" fill="#F5F6F6"/>
<path d="M178.667 168C179.769 168.735 179.922 169.057 180.421 170.24C180.619 170.706 180.619 170.706 180.821 171.181C180.956 171.506 181.091 171.832 181.229 172.167C181.368 172.492 181.506 172.817 181.649 173.152C182.667 175.568 182.667 175.568 182.667 176.333C180.247 176.333 177.827 176.333 175.333 176.333C176.458 172.958 176.458 172.958 176.942 171.874C177.044 171.643 177.146 171.412 177.251 171.174C177.354 170.945 177.457 170.715 177.563 170.479C177.669 170.238 177.776 169.997 177.886 169.749C178.145 169.166 178.406 168.583 178.667 168Z" fill="#EDEFEF"/>
<path d="M78.6665 162C80.5365 162 82.4065 162 84.3332 162C84.3332 169.7 84.3332 177.4 84.3332 185.333C82.4632 185.333 80.5932 185.333 78.6665 185.333C78.6665 177.633 78.6665 169.933 78.6665 162ZM78.9998 162.333C78.9998 169.813 78.9998 177.293 78.9998 185C80.5398 184.89 82.0798 184.78 83.6665 184.667C83.7765 177.297 83.8865 169.927 83.9998 162.333C82.3498 162.333 80.6998 162.333 78.9998 162.333Z" fill="#4E5558"/>
<path d="M130.667 201.666C131.639 201.639 132.611 201.62 133.583 201.604C133.858 201.596 134.133 201.587 134.417 201.579C136.455 201.554 136.455 201.554 137.517 202.118C138 202.666 138 202.666 138.146 203.5C137.973 204.485 137.778 204.728 137 205.333C136.305 205.447 136.305 205.447 135.517 205.431C135.234 205.428 134.952 205.424 134.661 205.421C134.22 205.408 134.22 205.408 133.771 205.396C133.473 205.391 133.176 205.387 132.869 205.382C132.135 205.37 131.401 205.352 130.667 205.333C130.667 204.123 130.667 202.913 130.667 201.666Z" fill="#F6F7F5"/>
<path d="M130.667 195.333C131.528 195.306 132.388 195.287 133.25 195.271C133.493 195.263 133.736 195.254 133.987 195.246C135.08 195.231 135.859 195.256 136.828 195.785C137.333 196.333 137.333 196.333 137.5 197.167C137.333 198 137.333 198 136.828 198.548C135.655 199.188 134.548 199.107 133.25 199.063C132.877 199.056 132.877 199.056 132.497 199.049C131.887 199.037 131.277 199.019 130.667 199C130.667 197.79 130.667 196.58 130.667 195.333Z" fill="#F1F2F2"/>
<path d="M114.333 196.333C114.553 196.333 114.773 196.333 115 196.333C115.335 197.152 115.668 197.972 116 198.792C116.096 199.025 116.191 199.258 116.289 199.498C117 201.258 117 201.258 117 202C115.46 202 113.92 202 112.333 202C112.614 200.597 112.964 199.529 113.521 198.229C113.749 197.695 113.749 197.695 113.981 197.15C114.155 196.746 114.155 196.746 114.333 196.333Z" fill="#EFF1F0"/>
<path d="M143 148C143.495 148.33 143.495 148.33 144 148.667C144.788 148.767 145.581 148.832 146.375 148.875C146.598 148.888 146.82 148.9 147.05 148.913C148.702 149.001 150.346 149.029 152 149C152.11 148.78 152.22 148.56 152.333 148.333C152.443 148.773 152.553 149.213 152.667 149.667C151.243 149.696 149.82 149.713 148.396 149.729C147.788 149.742 147.788 149.742 147.169 149.755C146.587 149.759 146.587 149.759 145.993 149.764C145.636 149.77 145.278 149.775 144.909 149.78C144 149.667 144 149.667 143.375 149.202C143 148.667 143 148.667 143 148Z" fill="#252B2F"/>
<path d="M100.583 68.8335C101.667 69.0002 101.667 69.0002 102.181 69.521C102.605 70.1095 102.982 70.6994 103.333 71.3335C102.511 70.9496 101.984 70.6509 101.333 70.0002C100.477 69.8982 99.651 69.8299 98.7918 69.7918C98.5564 69.7789 98.3209 69.766 98.0783 69.7528C97.4968 69.7213 96.9152 69.6937 96.3335 69.6668C96.3335 69.5568 96.3335 69.4468 96.3335 69.3335C97.0608 69.2411 97.7876 69.1568 98.5171 69.0835C99.2073 69.013 99.8958 68.9252 100.583 68.8335Z" fill="#232A2E"/>
<path d="M173 115C173.667 115.667 173.667 115.667 173.771 116.938C173.743 118.199 173.457 118.988 172.667 120C172.557 120 172.447 120 172.333 120C172.509 118.323 172.702 116.66 173 115Z" fill="#343C40"/>
<path d="M156.667 100C156.887 100 157.107 100 157.333 100C157.478 100.412 157.622 100.825 157.771 101.25C158.164 102.305 158.584 103.144 159.333 104C158.296 103.501 157.316 102.934 156.333 102.333C156.443 101.563 156.553 100.793 156.667 100Z" fill="#363F43"/>
<path d="M146 143C146.821 143.821 146.999 144.569 147.333 145.667C146.783 145.667 146.233 145.667 145.667 145.667C145.447 145.227 145.227 144.787 145 144.333C145.33 144.223 145.66 144.113 146 144C146 143.67 146 143.34 146 143Z" fill="#DCDFE1"/>
<path d="M119.667 164.333C119.997 164.443 120.327 164.553 120.667 164.667C120.111 165.222 119.556 165.778 119 166.333C118.815 166.533 118.629 166.732 118.438 166.938C118 167.333 118 167.333 117.333 167.333C117.852 166.061 118.679 165.27 119.667 164.333Z" fill="#272F33"/>
<path d="M119.333 101.667C119.333 101.887 119.333 102.107 119.333 102.333C117.529 103.667 117.529 103.667 116.667 103.667C116.75 103.042 116.75 103.042 117 102.333C117.86 101.759 118.283 101.667 119.333 101.667Z" fill="#E4E7E9"/>
<path d="M117 180C117.979 180.25 117.979 180.25 119 180.667C119.292 181.375 119.292 181.375 119.333 182C119.003 182 118.673 182 118.333 182C117.604 181 117.604 181 117 180Z" fill="#343C3E"/>
<path d="M94.9998 69C95.6598 69 96.3198 69 96.9998 69C97.1098 69.33 97.2198 69.66 97.3332 70C96.4532 70 95.5732 70 94.6665 70C94.7765 69.67 94.8865 69.34 94.9998 69Z" fill="#353C41"/>
<path d="M104.667 63C105.217 63 105.767 63 106.333 63C106.333 63.33 106.333 63.66 106.333 64C106.553 64.11 106.773 64.22 107 64.3333C106.45 64.4433 105.9 64.5533 105.333 64.6667C105.333 64.2267 105.333 63.7867 105.333 63.3333C105.113 63.2233 104.893 63.1133 104.667 63Z" fill="#232C31"/>
</svg>
